<svg xmlns="http://www.w3.org/2000/svg" width="57.26" height="57.26" viewBox="0 0 57.26 57.26">
  <g id="logo-ionic-outline" transform="translate(-2.25 -2.25)">
    <path id="路径_42877" data-name="路径 42877" d="M23.871,10.821a13.05,13.05,0,1,0,13.05,13.05,13.05,13.05,0,0,0-13.05-13.05Z" transform="translate(7.009 7.009)" fill="#5078fe"/>
    <path id="路径_42878" data-name="路径 42878" d="M36.928,10.863a5.946,5.946,0,1,1-5.946-5.946,5.946,5.946,0,0,1,5.946,5.946Z" transform="translate(18.634 2.181)" fill="#5078fe"/>
    <path id="路径_42879" data-name="路径 42879" d="M56.936,19.019l-.249-.547-.4.449A8.947,8.947,0,0,1,52.7,21.389l-.384.14.156.374A23.409,23.409,0,1,1,40.9,9.754l.367.165.16-.373a8.971,8.971,0,0,1,2.639-3.463l.469-.374-.533-.265A28.325,28.325,0,0,0,30.88,2.25,28.634,28.634,0,1,0,56.936,19.019Z" transform="translate(0 0)" fill="#5078fe"/>
  </g>
</svg>
